<?xml version="1.0" encoding="UTF-8" standalone="no"?><!DOCTYPE svg PUBLIC "-//W3C//DTD SVG 1.1//EN" "http://www.w3.org/Graphics/SVG/1.1/DTD/svg11.dtd"><svg width="100%" height="100%" viewBox="0 0 1164 989" version="1.1" xmlns="http://www.w3.org/2000/svg" xmlns:xlink="http://www.w3.org/1999/xlink" xml:space="preserve" xmlns:serif="http://www.serif.com/" style="fill-rule:evenodd;clip-rule:evenodd;stroke-linecap:round;stroke-linejoin:round;stroke-miterlimit:1.5;"><rect id="Dise単o-final" serif:id="Dise単o final" x="-57.46" y="-75.269" width="1314.11" height="1145.86" style="fill:none;"/><g id="Dise単o-final1" serif:id="Dise単o final"><path d="M381.241,406.622c0.387,-2.267 2.541,-3.794 4.808,-3.407c2.267,0.387 3.793,2.542 3.406,4.809c-0.447,2.618 -1.617,6.579 -1.794,9.234c-0.249,3.745 -0.132,6.876 -0.277,10.621c-0.408,10.484 -0.603,20.698 -0.617,31.127c-0.006,4.132 0.177,8.264 0.177,12.396c-0.001,2.957 1.156,6.769 2.309,9.535c0.886,2.122 -0.119,4.564 -2.241,5.449c-2.123,0.885 -4.564,-0.119 -5.45,-2.241c-1.538,-3.688 -2.952,-8.801 -2.952,-12.743c0.001,-4.136 -0.182,-8.272 -0.176,-12.407c0.014,-10.534 0.211,-20.85 0.623,-31.439c0.148,-3.827 0.034,-7.026 0.29,-10.853c0.193,-2.895 1.406,-7.226 1.894,-10.081Z" style="fill:#df2d13;"/><path d="M774.688,451.134c0.07,-0.57 0.591,-0.976 1.162,-0.906c0.57,0.071 0.976,0.592 0.905,1.162c-0.292,2.359 -0.893,4.47 -1.742,6.681c-0.206,0.536 -0.809,0.805 -1.346,0.599c-0.536,-0.206 -0.805,-0.809 -0.599,-1.346c0.787,-2.049 1.349,-4.004 1.62,-6.19Z" style="fill:#b1aa29;"/><path d="M771.573,450.918c0.1,-0.567 0.64,-0.946 1.207,-0.846c0.566,0.099 0.945,0.64 0.845,1.206c-0.402,2.293 -0.991,4.541 -2.324,6.494c-0.324,0.475 -0.972,0.598 -1.447,0.274c-0.475,-0.325 -0.598,-0.973 -0.274,-1.448c1.163,-1.704 1.642,-3.679 1.993,-5.68Z" style="fill:#b1aa29;"/><path d="M388.164,408.282c-1.239,-1.937 -0.673,-4.516 1.265,-5.755c1.937,-1.239 4.516,-0.673 5.755,1.265c2.704,4.227 5.541,7.293 7.28,11.827c1.662,4.335 1.632,9.265 1.464,13.894c-0.27,7.418 -0.273,14.834 -0.259,22.254c0.021,10.932 -3.193,25.055 -7.375,35.465c-0.857,2.134 -3.286,3.171 -5.419,2.314c-2.134,-0.858 -3.171,-3.286 -2.314,-5.42c3.815,-9.497 6.794,-22.37 6.775,-32.342c-0.014,-7.527 -0.01,-15.049 0.264,-22.573c0.128,-3.528 0.349,-7.305 -0.917,-10.608c-1.529,-3.985 -4.142,-6.605 -6.519,-10.321Z" style="fill:#492fb0;"/><path d="M765.666,401.655c0.745,-2.175 3.116,-3.337 5.292,-2.592c2.175,0.745 3.337,3.116 2.592,5.292c-2.521,7.362 -2.118,14.235 -0.76,21.154c1.494,7.613 4.109,15.279 5.815,23.593c0.462,2.253 -0.992,4.457 -3.245,4.919c-2.253,0.462 -4.457,-0.992 -4.919,-3.245c-1.71,-8.338 -4.33,-16.027 -5.828,-23.662c-1.635,-8.329 -1.981,-16.597 1.053,-25.459Z" style="fill:#492fb0;"/><path d="M746.506,451.932c0.015,-0.575 0.494,-1.029 1.069,-1.014c0.575,0.015 1.029,0.494 1.014,1.068c-0.077,2.935 -0.198,5.952 -0.736,8.841c-0.105,0.565 -0.649,0.938 -1.215,0.833c-0.565,-0.105 -0.938,-0.649 -0.833,-1.214c0.517,-2.783 0.627,-5.688 0.701,-8.514Z" style="fill:#b1aa29;"/><path d="M749.483,452.763c-0.016,-0.574 0.438,-1.053 1.013,-1.069c0.575,-0.015 1.054,0.439 1.069,1.014c0.066,2.446 0.088,4.892 0.102,7.339c0.004,0.575 -0.46,1.044 -1.035,1.048c-0.575,0.003 -1.045,-0.461 -1.048,-1.036c-0.015,-2.432 -0.036,-4.864 -0.101,-7.296Z" style="fill:#b1aa29;"/><path id="CableRojoDel-Derecha" d="M757.936,401.302c1.619,-1.633 4.259,-1.645 5.892,-0.026c1.634,1.618 1.646,4.259 0.027,5.892c-1.386,1.398 -2.904,2.672 -4.014,4.311c-1.678,2.479 -2.586,5.166 -3.593,7.966c-0.936,2.601 -2.077,5.175 -2.619,7.897c-0.934,4.683 -0.813,9.539 -0.806,14.291c0.005,3.024 -0.194,6.055 -0.065,9.078c0.097,2.298 -1.688,4.242 -3.986,4.34c-2.298,0.098 -4.242,-1.688 -4.34,-3.985c-0.134,-3.138 0.063,-6.282 0.058,-9.42c-0.008,-5.3 -0.075,-10.71 0.966,-15.933c0.623,-3.126 1.876,-6.101 2.95,-9.088c1.246,-3.465 2.458,-6.75 4.535,-9.818c1.401,-2.069 3.246,-3.741 4.995,-5.505Z" style="fill:#df2d13;"/><circle cx="389.976" cy="394.951" r="21.047" style="fill:#fc9a45;fill-opacity:0;stroke:#808080;stroke-width:8.33px;"/><circle cx="766.587" cy="394.812" r="21.047" style="fill:#1a120b;fill-opacity:0;stroke:#808080;stroke-width:8.33px;"/><path d="M760.663,443.215c0.15,-0.555 0.722,-0.884 1.278,-0.734c0.555,0.149 0.884,0.722 0.734,1.277c-0.635,2.349 -1.576,4.8 -1.505,7.274c0.016,0.575 -0.437,1.055 -1.012,1.072c-0.575,0.016 -1.054,-0.437 -1.071,-1.012c-0.077,-2.676 0.89,-5.337 1.576,-7.877Z" style="fill:#b1aa29;"/><path d="M757.65,442.263c0.25,-0.518 0.874,-0.735 1.391,-0.485c0.518,0.25 0.735,0.874 0.485,1.391c-1.485,3.073 -2.559,5.759 -2.909,9.177c-0.059,0.572 -0.571,0.988 -1.143,0.93c-0.572,-0.059 -0.988,-0.571 -0.93,-1.143c0.377,-3.673 1.51,-6.567 3.106,-9.87Z" style="fill:#b1aa29;"/><path d="M779.203,454.215c0.23,-0.527 0.844,-0.769 1.371,-0.539c0.527,0.229 0.769,0.844 0.539,1.371c-0.931,2.136 -1.904,4.277 -1.711,6.657c0.047,0.573 -0.38,1.076 -0.953,1.122c-0.574,0.047 -1.077,-0.38 -1.123,-0.953c-0.222,-2.73 0.809,-5.207 1.877,-7.658Z" style="fill:#b1aa29;"/><path d="M782.251,455.035c0.234,-0.525 0.851,-0.76 1.376,-0.525c0.525,0.234 0.76,0.851 0.525,1.376c-0.842,1.882 -1.638,3.972 -1.431,6.058c0.057,0.572 -0.361,1.083 -0.933,1.14c-0.573,0.057 -1.083,-0.362 -1.14,-0.934c-0.243,-2.444 0.616,-4.91 1.603,-7.115Z" style="fill:#b1aa29;"/><path d="M757.93,407.366c-1.336,-1.872 -0.9,-4.477 0.972,-5.812c1.873,-1.335 4.477,-0.9 5.812,0.973c2.736,3.835 3.929,8.211 4.382,12.848c0.926,9.482 0.23,21.704 -5.967,29.508c-1.43,1.801 -4.053,2.102 -5.854,0.672c-1.801,-1.43 -2.102,-4.053 -0.672,-5.854c4.917,-6.192 4.934,-15.992 4.199,-23.516c-0.31,-3.168 -1.003,-6.198 -2.872,-8.819Z" style="fill:#df2d13;"/><path id="CableAzulDel-Derecha" d="M766.209,405.321c-1.18,-1.974 -0.535,-4.535 1.439,-5.715c1.974,-1.18 4.534,-0.535 5.714,1.439c6.209,10.385 12.067,22.524 14.116,34.879c0.969,5.843 0.125,12.196 -1.12,18.041c-0.48,2.249 -2.695,3.686 -4.944,3.207c-2.249,-0.479 -3.686,-2.694 -3.207,-4.943c1.032,-4.844 1.853,-10.1 1.05,-14.942c-1.88,-11.336 -7.351,-22.437 -13.048,-31.966Z" style="fill:#492fb0;"/><g><path id="Cartel1-Bajo" d="M90.771,360.426l1072.64,372.698l-6.949,16.043l-41.137,29.038l22.455,24.463l-1017.43,-355.265l-11.517,-9.05c-1.201,-1.182 -2.562,-2.707 -3.252,-3.039c-0.739,-0.356 -1.417,-0.734 -2.054,-1.13l-29.708,-23.345l7.927,-24.575l9.022,-25.838Zm298.962,110.055c-7.467,0 -13.528,6.081 -13.528,13.572c-0,7.49 6.061,13.571 13.528,13.571c7.466,-0 13.528,-6.081 13.528,-13.571c-0,-7.491 -6.062,-13.572 -13.528,-13.572Zm407.648,141.27c-7.466,-0 -13.528,6.081 -13.528,13.571c0,7.49 6.062,13.571 13.528,13.571c7.467,0 13.528,-6.081 13.528,-13.571c0,-7.49 -6.061,-13.571 -13.528,-13.571Z" style="fill:url(#_Linear1);stroke:#1a120b;stroke-width:0.84px;"/><path id="Cartel1-Medio" d="M120.546,452.732l-0.282,-5.429l1017.1,355.15l2.429,5.69l-28.226,75.779l-1069.85,-373.567l22.038,-63.113l9.401,3.283c4.444,1.993 8.694,3.292 15.449,3.198c3.875,-0.053 26.084,3.393 31.963,1.28l0.092,0.005l-0.002,-0.038c0.279,-0.106 0.518,-0.226 0.714,-0.359c0.125,-0.085 -0.212,-0.798 -0.831,-1.879Z" style="fill:url(#_Linear2);stroke:#1a120b;stroke-width:0.84px;"/><path id="Cartel1-Arriba" d="M1110.12,883.255c-1.035,0.013 -2.038,0.194 -3.025,0.309c-4.083,0.473 -12.466,2.226 -15.779,3.105c-7.024,1.864 -11.496,3.169 -18.602,5.199c-7.248,2.071 -12.853,2.61 -19.224,5.293c-0.881,0.371 -9.068,1.454 -8.562,3.088c0.367,1.186 1.881,2.545 2.541,3.752c4.662,8.528 2.47,9.889 6.166,19.85c0.533,1.437 4.128,11.984 4.741,13.335c5.244,11.56 10.475,13.967 11.061,24.218l6.824,26.515l-1075.84,-375.659l13.121,-37.575c0.285,-0.033 0.54,-0.065 0.756,-0.098c11.277,-1.691 21.935,0.354 33.234,-1.712c4.208,-0.769 8.455,-1.689 12.67,-2.5c1.444,-0.278 2.89,-0.873 4.334,-1.15c0.816,-0.158 0.303,-0.276 0.058,-1.186c-0.336,-1.249 -0.717,-1.501 -1.332,-1.923c-3.162,-2.165 -6.446,-4.193 -9.52,-6.52c-3.562,-2.696 -6.902,-5.485 -10.59,-7.959c-5.829,-3.909 -11.611,-7.873 -17.474,-11.708l10.998,-31.497l1073.44,374.823Z" style="fill:url(#_Linear3);stroke:#1a120b;stroke-width:0.84px;"/></g><path id="CableAzulDel-Izquierda" d="M388.633,408.144c-1.425,-1.805 -1.117,-4.427 0.688,-5.852c1.805,-1.425 4.428,-1.117 5.852,0.688c8.265,10.47 12.934,26.724 13.119,42.971c0.187,16.369 -4.194,32.641 -13.455,43.015c-1.531,1.716 -4.168,1.865 -5.883,0.334c-1.716,-1.532 -1.865,-4.168 -0.334,-5.884c8.024,-8.988 11.501,-23.187 11.339,-37.37c-0.163,-14.305 -4.05,-28.684 -11.326,-37.902Z" style="fill:#492fb0;"/><path id="CableRojoDel-Izquierda" d="M381.521,409.426c-1.123,-2.007 -0.406,-4.548 1.601,-5.671c2.006,-1.123 4.548,-0.406 5.671,1.601c13.287,23.742 13.447,55.864 0.529,79.855c-1.09,2.025 -3.619,2.783 -5.644,1.693c-2.025,-1.09 -2.784,-3.619 -1.693,-5.644c11.62,-21.581 11.489,-50.477 -0.464,-71.834Z" style="fill:#df2d13;"/><path d="M986.453,50.005c-0,-19.55 -15.872,-35.422 -35.422,-35.422l-745.119,0c-19.55,0 -35.422,15.872 -35.422,35.422l0,283.371c0,19.55 15.872,35.422 35.422,35.422l745.119,-0c19.55,-0 35.422,-15.872 35.422,-35.422l-0,-283.371Z" style="fill:url(#_Linear4);stroke:url(#_Linear5);stroke-width:29.17px;"/><path d="M446.36,236.997l-30.11,-0l-0,-23.623l30.11,-0l0,23.623Zm90.332,-1.378l0,-22.245l30.111,-0l0,23.623l-30.111,-0l0,-1.378Zm-294.344,-96.516l0,-22.549l120.443,0l0,22.549l-120.443,-0Zm204.012,-0l0,-22.549l90.332,0l0,22.549l-90.332,-0Zm143.791,-0l0,-22.549l120.443,0l-0,22.549l-120.443,-0Zm204.012,-0l0,-22.549l90.332,0l0,22.549l-90.332,-0Zm120.443,7.679l-0,26.407l-30.111,-0l0,-26.407l30.111,0Zm-0,34.086l-0,24.826l-30.111,0l0,-24.826l30.111,0Zm-30.111,63.912l0,21.921l-90.332,-0l0,-21.921l90.332,-0Zm-173.901,-0l-0,21.921l-120.443,-0l0,-21.921l120.443,-0Zm-173.902,-0l0,21.921l-90.332,-0l0,-21.921l90.332,-0Zm-143.79,-0l-0,21.921l-30.111,-0l0,-21.921l30.111,-0Zm-120.443,-0l0,21.921l-30.111,-0l0,-21.921l30.111,-0Zm-30.111,-7.68l0,-23.726l30.111,-0l0,23.726l-30.111,0Zm0,-31.406l0,-24.826l120.443,0l0,24.826l-120.443,0Zm0,-32.505l0,-26.407l30.111,0l0,26.407l-30.111,-0Zm204.012,-26.407l0,26.407l-30.11,-0l-0,-26.407l30.11,0Zm-53.458,0l-0,26.407l-30.111,-0l0,-26.407l30.111,0Zm227.36,0l-0,26.407l-30.111,-0l0,-26.407l30.111,0Zm-53.459,0l0,26.407l-30.111,-0l0,-26.407l30.111,0Zm227.36,0l0,26.407l-30.111,-0l0,-26.407l30.111,0Zm-53.459,0l0,26.407l-30.11,-0l-0,-26.407l30.11,0Zm53.459,34.086l0,24.826l-30.111,0l0,-24.826l30.111,0Zm-431.372,56.232l0,-23.726l30.111,-0l-0,23.726l-30.111,0Zm53.459,-31.406l-0,-24.826l30.11,0l0,24.826l-30.11,0Zm294.344,-24.826l-0,24.826l-120.443,0l0,-24.826l120.443,0Zm-143.791,0l0,24.826l-30.111,0l0,-24.826l30.111,0Z" style="fill:#ce2f2f;fill-rule:nonzero;"/><rect x="884.495" y="213.374" width="30.111" height="23.623" style="fill:#ce2f2f;"/><path d="M794.163,236.997l-30.111,-0l0,-23.623l30.111,-0l-0,23.623Z" style="fill:#ce2f2f;"/><rect x="710.594" y="213.374" width="30.111" height="23.623" style="fill:#ce2f2f;"/><path d="M620.261,237.1l-30.11,0l0,-23.726l30.111,-0l-0.001,23.623l0,0.103Z" style="fill:#ce2f2f;"/><g><path d="M155.525,451.538l11.643,0.369l27.531,107.225c1.35,5.383 2.768,8.963 4.255,10.74c1.488,1.777 3.536,2.707 6.146,2.789l1.565,0.05l-0.242,7.652l-35.332,-1.12l0.242,-7.652c1.143,-0.085 2.26,-0.111 3.351,-0.076c2.277,0.072 3.782,-0.184 4.513,-0.769c1.412,-1.11 2.146,-2.546 2.202,-4.307c0.041,-1.276 -0.525,-4.425 -1.695,-9.447l-5.792,-24.805l-35.968,-1.14l-8.617,27.267c-0.897,2.829 -1.363,4.79 -1.397,5.883c-0.039,1.215 0.177,2.285 0.646,3.212c0.469,0.927 1.124,1.631 1.963,2.114c0.84,0.483 2.209,0.754 4.107,0.814c1.281,0.041 2.324,0.104 3.128,0.19l-0.242,7.653l-29.68,-0.941l0.243,-7.652c2.752,0.087 4.744,-0.199 5.976,-0.859c1.232,-0.661 2.323,-1.751 3.274,-3.271c0.95,-1.52 2.24,-4.746 3.869,-9.679l34.311,-104.24Zm-14.785,70.661l30.659,0.971l-13.543,-55.144l-17.116,54.173Z" style="fill:url(#_Linear6);fill-rule:nonzero;"/><path d="M254.781,486.178l4.162,-6.426l29.765,19.275c13.628,8.824 22.421,16.075 26.38,21.752c5.849,8.348 8.404,18.508 7.664,30.48c-0.816,13.226 -5.304,26.138 -13.461,38.736c-5.549,8.568 -12.055,15.667 -19.517,21.295c-7.462,5.629 -14.838,9.268 -22.127,10.918c-6.071,1.426 -12.159,1.266 -18.267,-0.482c-6.108,-1.747 -11.752,-4.297 -16.932,-7.652l-42.616,-27.596l4.161,-6.427l3.467,2.245l1.086,0.812c1.474,0.955 2.927,1.353 4.359,1.194c1.432,-0.159 2.76,-0.746 3.984,-1.764c0.907,-0.788 2.499,-2.942 4.778,-6.461l46.223,-71.38c2.626,-4.056 4.122,-6.803 4.489,-8.242c0.472,-1.953 0.291,-3.637 -0.546,-5.053c-0.517,-0.773 -2.868,-2.514 -7.052,-5.224Zm-37.952,106.163l18.072,11.703c1.795,1.162 5.042,2.685 9.739,4.567c4.698,1.883 8.325,2.819 10.88,2.808c3.757,-0.031 8.12,-1.173 13.089,-3.425c4.969,-2.252 9.866,-5.639 14.69,-10.159c4.824,-4.52 9.483,-10.252 13.979,-17.194c4.462,-6.891 7.662,-13.296 9.598,-19.215c1.936,-5.919 2.863,-11.767 2.782,-17.544c-0.081,-5.776 -1.082,-10.79 -3.001,-15.039c-1.919,-4.249 -4.732,-7.973 -8.437,-11.17c-2.029,-1.675 -5.617,-4.18 -10.763,-7.512l-12.267,-7.944l-58.361,90.124Z" style="fill:url(#_Linear7);fill-rule:nonzero;"/><path d="M354.512,516.063l34.219,11.952l-2.524,7.228l-2.622,-0.916c-2.42,-0.845 -3.984,-1.261 -4.692,-1.249c-1.018,0.033 -1.898,0.358 -2.641,0.974c-0.743,0.616 -1.287,1.415 -1.63,2.398c-0.545,1.56 -0.884,3.971 -1.017,7.232l-4.128,91.822l54.21,-74.328c1.926,-2.635 3.151,-4.704 3.676,-6.206c0.586,-1.676 0.561,-3.047 -0.072,-4.111c-0.634,-1.065 -2.34,-2.083 -5.119,-3.053l-3.092,-1.08l2.524,-7.228l29.127,10.173l-2.525,7.228c-2.49,-0.934 -4.44,-1.29 -5.849,-1.069c-1.41,0.221 -2.698,0.777 -3.864,1.668c-1.487,1.234 -3.46,3.498 -5.918,6.793l-67.325,90.204l-9.507,-3.321l3.809,-112.399c0.14,-3.713 0.15,-6.044 0.029,-6.994c-0.203,-1.434 -0.565,-2.663 -1.087,-3.689c-0.522,-1.025 -1.255,-1.914 -2.199,-2.665c-0.945,-0.751 -2.381,-1.463 -4.308,-2.136l2.525,-7.228Z" style="fill:url(#_Linear8);fill-rule:nonzero;"/><path d="M473.809,627.149l-6.832,-2.386l-13.622,38.997c-1.42,4.065 -2.139,6.593 -2.158,7.583c-0.018,0.99 0.239,1.802 0.773,2.438c0.533,0.636 2.303,1.479 5.31,2.529l14.071,4.915c7.854,2.744 14.412,3.683 19.675,2.818c5.262,-0.866 10.442,-3.198 15.54,-6.996c4.002,-2.963 8.451,-7.566 13.347,-13.809l5.156,4.89l-23.622,33.94l-79.123,-27.637l2.524,-7.228l2.689,0.939c3.137,1.096 5.176,1.52 6.117,1.274c1.424,-0.334 2.738,-1.216 3.942,-2.648c0.846,-0.983 1.936,-3.382 3.269,-7.198l28.884,-82.692c1.312,-3.758 1.9,-6.375 1.761,-7.85c-0.138,-1.476 -0.803,-2.811 -1.995,-4.005c-0.621,-0.671 -3.217,-1.804 -7.788,-3.401l2.525,-7.228l76.233,26.628l-2.225,34.655l-6.907,0.774c0.322,-5.681 0.124,-10.303 -0.594,-13.869c-0.718,-3.566 -1.939,-6.808 -3.663,-9.727c-1.724,-2.919 -3.711,-5.158 -5.961,-6.717c-2.25,-1.558 -6.628,-3.473 -13.134,-5.746l-22.75,-7.946l-15.359,43.97l8.802,3.074c-0.99,1.356 -1.947,2.738 -2.829,4.182c-0.714,1.167 -1.396,2.323 -2.056,3.477Z" style="fill:url(#_Linear9);"/><path d="M485.559,625.068c0.862,0.596 1.75,1.041 2.664,1.337c2.818,0.913 5.666,0.982 8.545,0.205c2.158,-0.554 5.484,-2.224 9.978,-5.009l1.781,-1.105l3.677,5.932l-47.412,29.388l-3.676,-5.931l4.106,-2.545c3.615,-2.241 6.092,-4.07 7.429,-5.487c1.338,-1.417 2.366,-3.132 3.084,-5.145c0.718,-2.014 0.928,-3.838 0.63,-5.472c-0.17,-0.929 -0.607,-2.103 -1.311,-3.523c3.036,-0.163 6,-0.839 9.338,-2.187c0.357,-0.144 0.754,-0.295 1.167,-0.458Z" style="fill:url(#_Linear10);"/><path d="M569.687,591.222l28.742,10.04l11.212,104.903l23.925,-68.494c1.431,-4.098 2.145,-7.151 2.143,-9.159c-0.003,-2.008 -0.47,-3.693 -1.402,-5.055c-0.933,-1.361 -2.631,-2.473 -5.096,-3.334l-2.42,-0.845l2.524,-7.228l31.327,10.942l-2.525,7.228l-1.671,-0.583c-2.762,-0.965 -4.734,-1.33 -5.916,-1.095c-1.663,0.325 -3.213,1.434 -4.65,3.329c-1.436,1.894 -2.83,4.775 -4.18,8.641l-34.414,98.525l-8.135,-2.841l-13.646,-126.125l-29.936,85.703c-1.663,4.761 -2.563,7.698 -2.699,8.808c-0.148,1.429 0.003,2.834 0.452,4.213c0.448,1.38 1.162,2.466 2.142,3.259c0.98,0.793 3.164,1.813 6.55,3.06l-2.525,7.228l-31.73,-11.083l2.525,-7.228l1.68,0.587c3.227,1.127 5.552,1.488 6.975,1.084c1.424,-0.404 2.79,-1.471 4.098,-3.202c1.309,-1.732 2.775,-4.921 4.398,-9.567l26.57,-76.066c1.673,-4.79 2.601,-7.736 2.785,-8.837c0.282,-2.103 0.002,-3.787 -0.838,-5.052c-0.84,-1.265 -2.964,-2.493 -6.37,-3.683l-2.42,-0.845l2.525,-7.228Z" style="fill:url(#_Linear11);fill-rule:nonzero;"/><path d="M682.249,626.002l4.706,1.644l-0.741,4.279l57.545,20.1l1.95,-3.857l4.908,1.714l-2.441,38.732l-7.012,0.64c0.373,-10.426 -0.769,-18.242 -3.425,-23.45c-2.656,-5.208 -7.099,-8.9 -13.329,-11.076c-2.599,-0.908 -4.19,-1.319 -4.773,-1.233c-0.584,0.086 -1.086,0.409 -1.508,0.97c-0.422,0.56 -1.224,2.533 -2.407,5.917l-29.094,83.294c-1.383,3.959 -2.146,6.685 -2.291,8.179c-0.145,1.494 -0.034,2.724 0.333,3.689c0.367,0.964 1.045,1.796 2.032,2.495c0.988,0.699 3.377,1.743 7.166,3.131l-2.525,7.228l-36.166,-12.633l2.524,-7.228c4.009,1.336 6.512,2.016 7.509,2.039c1.771,-0.029 3.274,-0.735 4.511,-2.117c1.237,-1.382 2.613,-4.239 4.126,-8.571l29.697,-85.022c0.921,-2.636 1.381,-4.276 1.379,-4.92c-0.001,-0.643 -0.227,-1.221 -0.677,-1.731c-0.45,-0.511 -1.549,-1.072 -3.297,-1.682c-4.885,-1.706 -9.076,-2.269 -12.572,-1.688c-3.497,0.581 -7.216,2.339 -11.158,5.274c-3.942,2.936 -7.903,7.152 -11.885,12.648l-5.088,-4.867l22.003,-31.898Z" style="fill:url(#_Linear12);fill-rule:nonzero;"/><path d="M783.642,792.537c4.099,2.505 8.846,3.706 14.241,3.603c6.025,-0.116 11.26,-1.616 15.702,-4.501c4.443,-2.885 9.751,-8.663 15.923,-17.334l31.955,-44.892c2.341,-3.289 3.775,-5.835 4.3,-7.638c0.526,-1.802 0.525,-3.417 -0.003,-4.845c-0.529,-1.427 -1.876,-2.911 -4.041,-4.453l-2.263,-1.61l4.44,-6.238l27.091,19.285l-4.44,6.237l-1.856,-1.321c-3.055,-2.175 -5.686,-2.921 -7.891,-2.238c-2.205,0.684 -4.781,3.094 -7.726,7.232l-33.986,47.746c-6.202,8.712 -12.649,15.068 -19.342,19.068c-6.693,4 -13.683,5.961 -20.97,5.883c-7.287,-0.078 -14.159,-2.415 -20.618,-7.013c-0.004,-0.002 -0.007,-0.005 -0.011,-0.008c2.948,-1.778 7.08,-4.689 9.495,-6.963Z" style="fill:url(#_Linear13);"/><path d="M771.512,798.436c-5.21,-2.553 -9.592,-6.242 -13.148,-11.069c-4.468,-6.066 -7.033,-12.578 -7.696,-19.536c-0.662,-6.957 0.59,-14.967 3.756,-24.031l20.558,-58.857c1.332,-3.813 1.996,-6.578 1.993,-8.297c-0.003,-1.718 -0.399,-3.104 -1.188,-4.157c-0.788,-1.054 -2.46,-2.026 -5.014,-2.919l-3.362,-1.174l2.525,-7.228l36.234,12.657l-2.525,7.228l-2.42,-0.846c-2.958,-1.033 -5.195,-1.393 -6.712,-1.08c-1.188,0.233 -2.27,0.956 -3.248,2.171c-0.977,1.214 -2.192,3.901 -3.645,8.06l-18.893,54.089c-3.369,9.646 -4.959,17.111 -4.768,22.396c0.191,5.285 1.852,10.246 4.984,14.883c2.075,3.073 4.575,5.517 7.499,7.33c-2.83,2.278 -3.221,7.58 -4.93,10.38Z" style="fill:url(#_Linear14);"/><path d="M885.589,701.565l48.402,16.907c9.188,3.209 15.708,6.854 19.562,10.936c3.855,4.082 6.241,8.874 7.16,14.376c0.92,5.503 0.317,11.294 -1.807,17.375c-2.184,6.253 -5.358,11.371 -9.523,15.355c-4.164,3.984 -9.057,6.555 -14.68,7.713c-5.623,1.158 -12.296,0.452 -20.02,-2.117l11.294,47.395c0.895,3.916 1.526,6.356 1.894,7.32c0.947,2.326 2.123,4.249 3.528,5.769c1.405,1.521 3.183,2.656 5.334,3.408l1.681,0.587l-2.525,7.228l-21.359,-7.461l-14.465,-69.352l-12.051,-4.21l-12.924,37.001c-1.443,4.13 -2.233,6.751 -2.369,7.862c-0.188,2.122 0.126,3.777 0.944,4.963c0.817,1.187 2.817,2.336 5.999,3.448l2.42,0.845l-2.525,7.228l-35.898,-12.539l2.525,-7.228l3.227,1.127c2.42,0.845 4.115,1.212 5.084,1.1c0.969,-0.112 1.954,-0.556 2.955,-1.333c1,-0.777 1.905,-1.893 2.715,-3.348c0.31,-0.6 1.389,-3.473 3.238,-8.62l27.441,-78.562c1.22,-3.493 1.825,-6.09 1.816,-7.791c-0.009,-1.702 -0.378,-3.055 -1.108,-4.062c-0.73,-1.006 -2.282,-1.924 -4.658,-2.753l-3.831,-1.339l2.524,-7.228Zm21.06,17.88l-15.78,45.175l19.322,6.749c6.553,2.289 11.334,3.379 14.343,3.272c4.251,-0.06 8.106,-1.545 11.565,-4.456c3.46,-2.911 6.181,-7.206 8.165,-12.886c1.683,-4.818 2.315,-9.151 1.896,-12.999c-0.419,-3.847 -1.7,-7.062 -3.844,-9.645c-2.145,-2.584 -5.91,-4.816 -11.296,-6.698l-24.371,-8.512Z" style="fill:url(#_Linear15);fill-rule:nonzero;"/><path d="M991.562,738.581l76.233,26.628l-2.224,34.656l-6.907,0.773c0.322,-5.68 0.124,-10.303 -0.594,-13.869c-0.718,-3.565 -1.939,-6.808 -3.663,-9.727c-1.724,-2.919 -3.711,-5.158 -5.961,-6.716c-2.25,-1.559 -6.628,-3.474 -13.134,-5.747l-22.75,-7.946l-15.359,43.97l11.323,3.955c4.179,1.46 7.651,1.659 10.416,0.597c2.766,-1.061 5.024,-2.799 6.774,-5.212c1.33,-1.789 2.867,-5.178 4.61,-10.169l0.692,-1.979l6.588,2.301l-18.395,52.662l-6.588,-2.302l1.593,-4.56c1.403,-4.016 2.179,-6.995 2.329,-8.938c0.149,-1.943 -0.13,-3.923 -0.837,-5.94c-0.707,-2.017 -1.691,-3.568 -2.951,-4.651c-1.259,-1.084 -3.642,-2.238 -7.146,-3.462l-11.323,-3.955l-13.622,38.997c-1.42,4.066 -2.139,6.593 -2.158,7.583c-0.018,0.99 0.239,1.802 0.772,2.438c0.534,0.636 2.304,1.479 5.311,2.529l14.071,4.915c7.854,2.744 14.412,3.683 19.674,2.818c5.263,-0.866 10.443,-3.197 15.541,-6.996c4.002,-2.963 8.451,-7.566 13.347,-13.809l5.155,4.89l-23.621,33.94l-79.124,-27.637l2.525,-7.228l2.689,0.939c3.137,1.096 5.176,1.52 6.117,1.274c1.424,-0.334 2.738,-1.216 3.942,-2.648c0.846,-0.983 1.936,-3.382 3.268,-7.198l28.884,-82.691c1.313,-3.759 1.9,-6.376 1.762,-7.851c-0.138,-1.475 -0.804,-2.81 -1.995,-4.005c-0.621,-0.67 -3.217,-1.804 -7.788,-3.401l2.524,-7.228Z" style="fill:url(#_Radial16);fill-rule:nonzero;"/></g><g id="Tornillo"><circle cx="241.234" cy="542.552" r="6.067" style="fill:#b1b1b1;"/><path d="M238.116,540.031l6.225,5.409l-3.082,-2.678l3.102,-2.73l-3.134,2.758l-3.109,2.666" style="fill:none;stroke:#000;stroke-width:1.35px;"/></g><g id="Tornillo1" serif:id="Tornillo"><circle cx="366.311" cy="539.187" r="6.067" style="fill:#b1b1b1;"/><path d="M363.192,536.666l6.226,5.409l-3.082,-2.678l3.102,-2.73l-3.135,2.758l-3.108,2.666" style="fill:none;stroke:#000;stroke-width:1.35px;"/></g><g id="Tornillo2" serif:id="Tornillo"><circle cx="362.385" cy="642.95" r="6.067" style="fill:#b1b1b1;"/><path d="M359.266,640.429l6.226,5.409l-3.083,-2.678l3.102,-2.73l-3.134,2.758l-3.108,2.666" style="fill:none;stroke:#000;stroke-width:1.35px;"/></g><g id="Tornillo3" serif:id="Tornillo"><circle cx="478.422" cy="624.205" r="6.067" style="fill:#b1b1b1;"/><path d="M475.303,621.685l6.226,5.409l-3.083,-2.678l3.103,-2.731l-3.135,2.759l-3.108,2.666" style="fill:none;stroke:#000;stroke-width:1.35px;"/></g><g id="Tornillo4" serif:id="Tornillo"><circle cx="442.634" cy="673.757" r="6.067" style="fill:#b1b1b1;"/><path d="M439.516,671.237l6.225,5.409l-3.082,-2.678l3.102,-2.731l-3.134,2.759l-3.109,2.666" style="fill:none;stroke:#000;stroke-width:1.35px;"/></g><g id="Tornillo5" serif:id="Tornillo"><circle cx="605.666" cy="721.474" r="6.067" style="fill:#b1b1b1;"/><path d="M602.548,718.953l6.225,5.409l-3.082,-2.678l3.102,-2.73l-3.134,2.759l-3.109,2.665" style="fill:none;stroke:#000;stroke-width:1.35px;"/></g><g id="Tornillo6" serif:id="Tornillo"><circle cx="712.6" cy="649.777" r="6.067" style="fill:#b1b1b1;"/><path d="M709.482,647.256l6.225,5.409l-3.082,-2.678l3.102,-2.73l-3.134,2.758l-3.109,2.666" style="fill:none;stroke:#000;stroke-width:1.35px;"/></g><g id="Tornillo7" serif:id="Tornillo"><circle cx="675.895" cy="754.264" r="6.067" style="fill:#b1b1b1;"/><path d="M672.777,751.743l6.225,5.409l-3.082,-2.678l3.102,-2.73l-3.134,2.759l-3.109,2.665" style="fill:none;stroke:#000;stroke-width:1.35px;"/></g><g id="Tornillo8" serif:id="Tornillo"><circle cx="775.687" cy="793.263" r="6.067" style="fill:#b1b1b1;"/><path d="M772.569,790.742l6.225,5.409l-3.082,-2.678l3.102,-2.73l-3.134,2.759l-3.109,2.665" style="fill:none;stroke:#000;stroke-width:1.35px;"/></g><g id="Tornillo9" serif:id="Tornillo"><circle cx="900.79" cy="714.041" r="6.067" style="fill:#b1b1b1;"/><path d="M897.672,711.521l6.225,5.408l-3.082,-2.677l3.102,-2.731l-3.134,2.759l-3.109,2.665" style="fill:none;stroke:#000;stroke-width:1.35px;"/></g><g id="Tornillo10" serif:id="Tornillo"><circle cx="784.481" cy="676.648" r="6.067" style="fill:#b1b1b1;"/><path d="M781.363,674.127l6.225,5.409l-3.082,-2.678l3.102,-2.73l-3.134,2.759l-3.109,2.665" style="fill:none;stroke:#000;stroke-width:1.35px;"/></g><g id="Tornillo11" serif:id="Tornillo"><circle cx="907.443" cy="775.14" r="6.067" style="fill:#b1b1b1;"/><path d="M904.325,772.619l6.225,5.409l-3.082,-2.678l3.102,-2.73l-3.134,2.759l-3.109,2.665" style="fill:none;stroke:#000;stroke-width:1.35px;"/></g><g id="Tornillo12" serif:id="Tornillo"><circle cx="1004.74" cy="807.636" r="6.067" style="fill:#b1b1b1;"/><path d="M1001.62,805.116l6.225,5.408l-3.082,-2.678l3.102,-2.73l-3.134,2.759l-3.109,2.665" style="fill:none;stroke:#000;stroke-width:1.35px;"/></g><g id="Tornillo13" serif:id="Tornillo"><circle cx="970.087" cy="858.142" r="6.067" style="fill:#b1b1b1;"/><path d="M966.968,855.622l6.225,5.409l-3.082,-2.678l3.102,-2.731l-3.134,2.759l-3.108,2.666" style="fill:none;stroke:#000;stroke-width:1.35px;"/></g><g id="Tornillo14" serif:id="Tornillo"><circle cx="1006.11" cy="751.453" r="6.067" style="fill:#b1b1b1;"/><path d="M1002.99,748.932l6.225,5.409l-3.082,-2.678l3.102,-2.73l-3.134,2.759l-3.108,2.665" style="fill:none;stroke:#000;stroke-width:1.35px;"/></g><g id="Tornillo15" serif:id="Tornillo"><circle cx="582.42" cy="602.182" r="6.067" style="fill:#b1b1b1;"/><path d="M579.301,599.662l6.225,5.409l-3.082,-2.678l3.102,-2.731l-3.134,2.759l-3.108,2.666" style="fill:none;stroke:#000;stroke-width:1.35px;"/></g><g id="Tornillo16" serif:id="Tornillo"><circle cx="479.339" cy="567.007" r="6.067" style="fill:#b1b1b1;"/><path d="M476.221,564.486l6.225,5.409l-3.082,-2.678l3.102,-2.73l-3.134,2.758l-3.109,2.666" style="fill:none;stroke:#000;stroke-width:1.35px;"/></g><g id="Tornillo17" serif:id="Tornillo"><circle cx="157.102" cy="527.408" r="6.067" style="fill:#b1b1b1;"/><path d="M153.984,524.887l6.225,5.409l-3.082,-2.678l3.102,-2.73l-3.134,2.759l-3.109,2.665" style="fill:none;stroke:#000;stroke-width:1.35px;"/></g></g><defs><linearGradient id="_Linear1" x1="0" y1="0" x2="1" y2="0" gradientUnits="userSpaceOnUse" gradientTransform="matrix(1089.59,0,0,442.242,73.8221,581.547)"><stop offset="0" style="stop-color:#ca582d;stop-opacity:1"/><stop offset="0.09" style="stop-color:#d57552;stop-opacity:1"/><stop offset="0.19" style="stop-color:#df9174;stop-opacity:1"/><stop offset="0.5" style="stop-color:#e39d82;stop-opacity:1"/><stop offset="0.8" style="stop-color:#df9173;stop-opacity:1"/><stop offset="0.91" style="stop-color:#d57651;stop-opacity:1"/><stop offset="1" style="stop-color:#cb592d;stop-opacity:1"/></linearGradient><linearGradient id="_Linear2" x1="0" y1="0" x2="1" y2="0" gradientUnits="userSpaceOnUse" gradientTransform="matrix(-1071.42,-374.117,28.1592,-80.6442,1127.22,844.15)"><stop offset="0" style="stop-color:#ca582d;stop-opacity:1"/><stop offset="0.09" style="stop-color:#d57552;stop-opacity:1"/><stop offset="0.19" style="stop-color:#df9174;stop-opacity:1"/><stop offset="0.5" style="stop-color:#e39d82;stop-opacity:1"/><stop offset="0.8" style="stop-color:#df9173;stop-opacity:1"/><stop offset="0.91" style="stop-color:#d57651;stop-opacity:1"/><stop offset="1" style="stop-color:#cb592d;stop-opacity:1"/></linearGradient><linearGradient id="_Linear3" x1="0" y1="0" x2="1" y2="0" gradientUnits="userSpaceOnUse" gradientTransform="matrix(-1075.84,-375.659,36.2543,-103.827,1094.39,936.005)"><stop offset="0" style="stop-color:#ca582d;stop-opacity:1"/><stop offset="0.09" style="stop-color:#d57552;stop-opacity:1"/><stop offset="0.19" style="stop-color:#df9174;stop-opacity:1"/><stop offset="0.5" style="stop-color:#e39d82;stop-opacity:1"/><stop offset="0.8" style="stop-color:#df9173;stop-opacity:1"/><stop offset="0.91" style="stop-color:#d57651;stop-opacity:1"/><stop offset="1" style="stop-color:#cb592d;stop-opacity:1"/></linearGradient><linearGradient id="_Linear4" x1="0" y1="0" x2="1" y2="0" gradientUnits="userSpaceOnUse" gradientTransform="matrix(815.963,0,0,354.214,170.49,191.69)"><stop offset="0" style="stop-color:#ddc7b9;stop-opacity:1"/><stop offset="0.49" style="stop-color:#fffaf7;stop-opacity:1"/><stop offset="0.75" style="stop-color:#e6d4c9;stop-opacity:1"/><stop offset="1" style="stop-color:#ddc7b9;stop-opacity:1"/></linearGradient><linearGradient id="_Linear5" x1="0" y1="0" x2="1" y2="0" gradientUnits="userSpaceOnUse" gradientTransform="matrix(815.963,0,0,354.214,170.49,191.69)"><stop offset="0" style="stop-color:#99421d;stop-opacity:1"/><stop offset="0.17" style="stop-color:#6f412d;stop-opacity:1"/><stop offset="0.5" style="stop-color:#684130;stop-opacity:1"/><stop offset="0.78" style="stop-color:#72412c;stop-opacity:1"/><stop offset="1" style="stop-color:#99421d;stop-opacity:1"/></linearGradient><linearGradient id="_Linear6" x1="0" y1="0" x2="1" y2="0" gradientUnits="userSpaceOnUse" gradientTransform="matrix(90.4942,-19.3112,24.8973,116.672,114.353,521.774)"><stop offset="0" style="stop-color:#000;stop-opacity:1"/><stop offset="0.22" style="stop-color:#3f1c0e;stop-opacity:1"/><stop offset="0.51" style="stop-color:#ca582d;stop-opacity:1"/><stop offset="0.6" style="stop-color:#73321a;stop-opacity:1"/><stop offset="0.7" style="stop-color:#220f08;stop-opacity:1"/><stop offset="1" style="stop-color:#000;stop-opacity:1"/></linearGradient><linearGradient id="_Linear7" x1="0" y1="0" x2="1" y2="0" gradientUnits="userSpaceOnUse" gradientTransform="matrix(85.7704,55.541,-69.1108,106.726,224.387,533.115)"><stop offset="0" style="stop-color:#000;stop-opacity:1"/><stop offset="0.5" style="stop-color:#ca582d;stop-opacity:1"/><stop offset="1" style="stop-color:#000;stop-opacity:1"/></linearGradient><linearGradient id="_Linear8" x1="0" y1="0" x2="1" y2="0" gradientUnits="userSpaceOnUse" gradientTransform="matrix(94.7482,1.62932,-2.03264,118.202,335.753,579.757)"><stop offset="0" style="stop-color:#000;stop-opacity:1"/><stop offset="0.22" style="stop-color:#34170c;stop-opacity:1"/><stop offset="0.44" style="stop-color:#ca582d;stop-opacity:1"/><stop offset="1" style="stop-color:#000;stop-opacity:1"/></linearGradient><linearGradient id="_Linear9" x1="0" y1="0" x2="1" y2="0" gradientUnits="userSpaceOnUse" gradientTransform="matrix(68.3205,27.9938,-27.9938,68.3205,450.345,612.587)"><stop offset="0" style="stop-color:#000;stop-opacity:1"/><stop offset="0.21" style="stop-color:#34170c;stop-opacity:1"/><stop offset="0.43" style="stop-color:#ca582d;stop-opacity:1"/><stop offset="1" style="stop-color:#000;stop-opacity:1"/></linearGradient><linearGradient id="_Linear10" x1="0" y1="0" x2="1" y2="0" gradientUnits="userSpaceOnUse" gradientTransform="matrix(56.8352,89.7473,-89.7473,56.8352,448.406,579.16)"><stop offset="0" style="stop-color:#000;stop-opacity:1"/><stop offset="0.21" style="stop-color:#34170c;stop-opacity:1"/><stop offset="0.42" style="stop-color:#ca582d;stop-opacity:1"/><stop offset="1" style="stop-color:#000;stop-opacity:1"/></linearGradient><linearGradient id="_Linear11" x1="0" y1="0" x2="1" y2="0" gradientUnits="userSpaceOnUse" gradientTransform="matrix(152.563,-6.50166,8.58046,201.343,534.721,671.776)"><stop offset="0" style="stop-color:#000;stop-opacity:1"/><stop offset="0.25" style="stop-color:#34170c;stop-opacity:1"/><stop offset="0.5" style="stop-color:#ca582d;stop-opacity:1"/><stop offset="1" style="stop-color:#000;stop-opacity:1"/></linearGradient><linearGradient id="_Linear12" x1="0" y1="0" x2="1" y2="0" gradientUnits="userSpaceOnUse" gradientTransform="matrix(134.804,-378.73,378.73,134.804,651.422,806.843)"><stop offset="0" style="stop-color:#000;stop-opacity:1"/><stop offset="0.25" style="stop-color:#34170c;stop-opacity:1"/><stop offset="0.5" style="stop-color:#ca582d;stop-opacity:1"/><stop offset="1" style="stop-color:#000;stop-opacity:1"/></linearGradient><linearGradient id="_Linear13" x1="0" y1="0" x2="1" y2="0" gradientUnits="userSpaceOnUse" gradientTransform="matrix(144.909,52.3812,-52.3812,144.909,695.104,763.793)"><stop offset="0" style="stop-color:#000;stop-opacity:1"/><stop offset="0.25" style="stop-color:#34170c;stop-opacity:1"/><stop offset="0.5" style="stop-color:#ca582d;stop-opacity:1"/><stop offset="1" style="stop-color:#000;stop-opacity:1"/></linearGradient><linearGradient id="_Linear14" x1="0" y1="0" x2="1" y2="0" gradientUnits="userSpaceOnUse" gradientTransform="matrix(153.703,121.586,-121.586,153.703,694.339,748.499)"><stop offset="0" style="stop-color:#000;stop-opacity:1"/><stop offset="0.25" style="stop-color:#34170c;stop-opacity:1"/><stop offset="0.5" style="stop-color:#ca582d;stop-opacity:1"/><stop offset="1" style="stop-color:#000;stop-opacity:1"/></linearGradient><linearGradient id="_Linear15" x1="0" y1="0" x2="1" y2="0" gradientUnits="userSpaceOnUse" gradientTransform="matrix(171.756,-120.976,120.976,171.756,873.769,920.89)"><stop offset="0" style="stop-color:#000;stop-opacity:1"/><stop offset="0.02" style="stop-color:#34170c;stop-opacity:1"/><stop offset="0.05" style="stop-color:#ca582d;stop-opacity:1"/><stop offset="1" style="stop-color:#000;stop-opacity:1"/></linearGradient><radialGradient id="_Radial16" cx="0" cy="0" r="1" gradientUnits="userSpaceOnUse" gradientTransform="matrix(114.034,127.607,-127.607,114.034,1004.55,808.793)"><stop offset="0" style="stop-color:#ca5930;stop-opacity:1"/><stop offset="0.17" style="stop-color:#71321b;stop-opacity:1"/><stop offset="0.37" style="stop-color:#200e08;stop-opacity:1"/><stop offset="1" style="stop-color:#000;stop-opacity:1"/></radialGradient></defs></svg>